<svg width="25" height="28" viewBox="0 0 25 28" fill="none" xmlns="http://www.w3.org/2000/svg">
<path fill-rule="evenodd" clip-rule="evenodd" d="M13.973 0.38663C14.6106 0.740266 15.1276 1.31376 15.4464 2.02103L24.6515 22.443C25.4652 24.2483 24.8055 26.4436 23.1781 27.3462C22.7206 27.6 22.2162 27.7321 21.7047 27.7321H3.29459C1.47504 27.7321 0 26.0958 0 24.0774C0 23.5101 0.119083 22.9505 0.347819 22.443L9.55287 2.02103C10.3666 0.215722 12.3456 -0.516024 13.973 0.38663ZM11.5465 3.42705L2.61253 23.2477C2.53853 23.4119 2.5 23.593 2.5 23.7765C2.5 24.4295 2.9772 24.9588 3.56586 24.9588H21.4339C21.5994 24.9588 21.7626 24.9161 21.9106 24.834C22.4371 24.542 22.6505 23.8318 22.3872 23.2477L13.4532 3.42705C13.3501 3.19823 13.1828 3.0127 12.9766 2.89829C12.45 2.60626 11.8098 2.843 11.5465 3.42705ZM12.5 19.4124C13.1904 19.4124 13.75 20.0332 13.75 20.799C13.75 21.5648 13.1904 22.1856 12.5 22.1856C11.8096 22.1856 11.25 21.5648 11.25 20.799C11.25 20.0332 11.8096 19.4124 12.5 19.4124ZM12.5 8.31962C13.1904 8.31962 13.75 8.94042 13.75 9.70622V15.2526C13.75 16.0184 13.1904 16.6392 12.5 16.6392C11.8096 16.6392 11.25 16.0184 11.25 15.2526V9.70622C11.25 8.94042 11.8096 8.31962 12.5 8.31962Z" fill="white"/>
</svg>
