<svg width="5" height="5" viewBox="0 0 5 5" fill="none" xmlns="http://www.w3.org/2000/svg">
<path fill-rule="evenodd" clip-rule="evenodd" d="M4.93345 0.387978C5.02218 0.299224 5.02218 0.155324 4.93345 0.0665693C4.84468 -0.0221898 4.70077 -0.0221898 4.612 0.0665693L2.5 2.17859L0.387978 0.0665693C0.299224 -0.0221898 0.155324 -0.0221898 0.0665693 0.0665693C-0.0221898 0.155324 -0.0221898 0.299224 0.0665693 0.387978L2.17859 2.5L0.0665693 4.612C-0.0221898 4.70077 -0.0221898 4.84468 0.0665693 4.93345C0.155324 5.02218 0.299224 5.02218 0.387978 4.93345L2.5 2.82141L4.612 4.93345C4.70077 5.02218 4.84468 5.02218 4.93345 4.93345C5.02218 4.84468 5.02218 4.70077 4.93345 4.612L2.82141 2.5L4.93345 0.387978Z" fill="black"/>
</svg>
